<?xml version="1.0" encoding="utf-8" standalone="no"?>
<!DOCTYPE svg PUBLIC "-//W3C//DTD SVG 1.1//EN"
  "http://www.w3.org/Graphics/SVG/1.1/DTD/svg11.dtd">
<svg xmlns:xlink="http://www.w3.org/1999/xlink" width="288pt" height="288pt" viewBox="0 0 288 288" xmlns="http://www.w3.org/2000/svg" version="1.1">
 <metadata>
  <rdf:RDF xmlns:dc="http://purl.org/dc/elements/1.1/" xmlns:cc="http://creativecommons.org/ns#" xmlns:rdf="http://www.w3.org/1999/02/22-rdf-syntax-ns#">
   <cc:Work>
    <dc:type rdf:resource="http://purl.org/dc/dcmitype/StillImage"/>
    <dc:date>2021-12-31T11:00:31.236708</dc:date>
    <dc:format>image/svg+xml</dc:format>
    <dc:creator>
     <cc:Agent>
      <dc:title>Matplotlib v3.5.0, https://matplotlib.org/</dc:title>
     </cc:Agent>
    </dc:creator>
   </cc:Work>
  </rdf:RDF>
 </metadata>
 <defs>
  <style type="text/css">*{stroke-linejoin: round; stroke-linecap: butt}</style>
 </defs>
 <g id="figure_1">
  <g id="patch_1">
   <path d="M 0 288 
L 288 288 
L 288 0 
L 0 0 
L 0 288 
z
" style="fill: none"/>
  </g>
  <g id="axes_1">
   <g id="patch_2">
    <path d="M 36 252 
L 259.2 252 
L 259.2 34.56 
L 36 34.56 
z
" style="fill: #eeeeee"/>
   </g>
   <g id="PolyCollection_1">
    <defs>
     <path id="meb39e9476a" d="M 56.33713 -84.693216 
L 56.33713 -58.468966 
L 66.505695 -124.717801 
L 76.67426 -89.929473 
L 86.842825 -83.889178 
L 97.01139 -61.508028 
L 107.179954 -68.828239 
L 117.348519 -87.25425 
L 127.517084 -78.49635 
L 137.685649 -78.6628 
L 147.854214 -80.883274 
L 158.022779 -81.494715 
L 168.191344 -80.52648 
L 178.359909 -94.466926 
L 188.528474 -86.206057 
L 198.697039 -85.930694 
L 208.865604 -70.590588 
L 219.034169 -77.941804 
L 229.202733 -75.272948 
L 239.371298 -73.216419 
L 239.371298 -105.032672 
L 239.371298 -105.032672 
L 229.202733 -85.679779 
L 219.034169 -86.305469 
L 208.865604 -83.236727 
L 198.697039 -97.777382 
L 188.528474 -97.377426 
L 178.359909 -113.466922 
L 168.191344 -97.205444 
L 158.022779 -105.282997 
L 147.854214 -99.836726 
L 137.685649 -94.369927 
L 127.517084 -105.518196 
L 117.348519 -124.434477 
L 107.179954 -99.811761 
L 97.01139 -84.28979 
L 86.842825 -106.714458 
L 76.67426 -124.394891 
L 66.505695 -263.558562 
L 56.33713 -84.693216 
z
" style="stroke: #0000ff; stroke-opacity: 0.25; stroke-width: 0.5"/>
    </defs>
    <g clip-path="url(#pe1e99a94cc)">
     <use xlink:href="#meb39e9476a" x="0" y="288" style="fill: #0000ff; fill-opacity: 0.25; stroke: #0000ff; stroke-opacity: 0.25; stroke-width: 0.5"/>
    </g>
   </g>
   <g id="PolyCollection_2">
    <defs>
     <path id="m5adcfda76a" d="M 56.33713 -140.093884 
L 56.33713 -99.927934 
L 66.505695 -85.703875 
L 76.67426 -79.104549 
L 86.842825 -91.294323 
L 97.01139 -71.333516 
L 107.179954 -72.350573 
L 117.348519 -70.554149 
L 127.517084 -78.063598 
L 137.685649 -78.662875 
L 147.854214 -80.353077 
L 158.022779 -82.491743 
L 168.191344 -83.39803 
L 178.359909 -81.846364 
L 188.528474 -79.076561 
L 198.697039 -67.26335 
L 208.865604 -64.735698 
L 219.034169 -69.280453 
L 229.202733 -66.6023 
L 239.371298 -50.681157 
L 249.539863 -37.463145 
L 249.539863 -42.773219 
L 249.539863 -42.773219 
L 239.371298 -55.883331 
L 229.202733 -70.417325 
L 219.034169 -72.360469 
L 208.865604 -69.569628 
L 198.697039 -71.533168 
L 188.528474 -84.080978 
L 178.359909 -87.49813 
L 168.191344 -92.047283 
L 158.022779 -90.759627 
L 147.854214 -90.687073 
L 137.685649 -87.299367 
L 127.517084 -89.71023 
L 117.348519 -80.514942 
L 107.179954 -95.907451 
L 97.01139 -86.831519 
L 86.842825 -116.498246 
L 76.67426 -109.52236 
L 66.505695 -109.84158 
L 56.33713 -140.093884 
z
" style="stroke: #ff0000; stroke-opacity: 0.25; stroke-width: 0.5"/>
    </defs>
    <g clip-path="url(#pe1e99a94cc)">
     <use xlink:href="#m5adcfda76a" x="0" y="288" style="fill: #ff0000; fill-opacity: 0.25; stroke: #ff0000; stroke-opacity: 0.25; stroke-width: 0.5"/>
    </g>
   </g>
   <g id="matplotlib.axis_1">
    <g id="xtick_1">
     <g id="line2d_1">
      <path d="M 36 252 
L 36 34.56 
" clip-path="url(#pe1e99a94cc)" style="fill: none; stroke-dasharray: 1.85,0.8; stroke-dashoffset: 0; stroke: #b2b2b2; stroke-width: 0.5"/>
     </g>
     <g id="line2d_2">
      <defs>
       <path id="mcb816da2bf" d="M 0 0 
L 0 -3.5 
" style="stroke: #000000; stroke-width: 0.8"/>
      </defs>
      <g>
       <use xlink:href="#mcb816da2bf" x="36" y="252" style="stroke: #000000; stroke-width: 0.8"/>
      </g>
     </g>
     <g id="text_1">
      <text style="font: 10px 'sans-serif'; text-anchor: middle" x="36" y="263.098437" transform="rotate(-0, 36, 263.098437)">0</text>
     </g>
    </g>
    <g id="xtick_2">
     <g id="line2d_3">
      <path d="M 56.33713 252 
L 56.33713 34.56 
" clip-path="url(#pe1e99a94cc)" style="fill: none; stroke-dasharray: 1.85,0.8; stroke-dashoffset: 0; stroke: #b2b2b2; stroke-width: 0.5"/>
     </g>
     <g id="line2d_4">
      <g>
       <use xlink:href="#mcb816da2bf" x="56.33713" y="252" style="stroke: #000000; stroke-width: 0.8"/>
      </g>
     </g>
     <g id="text_2">
      <text style="font: 10px 'sans-serif'; text-anchor: middle" x="56.33713" y="263.098437" transform="rotate(-0, 56.33713, 263.098437)">2</text>
     </g>
    </g>
    <g id="xtick_3">
     <g id="line2d_5">
      <path d="M 76.67426 252 
L 76.67426 34.56 
" clip-path="url(#pe1e99a94cc)" style="fill: none; stroke-dasharray: 1.85,0.8; stroke-dashoffset: 0; stroke: #b2b2b2; stroke-width: 0.5"/>
     </g>
     <g id="line2d_6">
      <g>
       <use xlink:href="#mcb816da2bf" x="76.67426" y="252" style="stroke: #000000; stroke-width: 0.8"/>
      </g>
     </g>
     <g id="text_3">
      <text style="font: 10px 'sans-serif'; text-anchor: middle" x="76.67426" y="263.098437" transform="rotate(-0, 76.67426, 263.098437)">4</text>
     </g>
    </g>
    <g id="xtick_4">
     <g id="line2d_7">
      <path d="M 97.01139 252 
L 97.01139 34.56 
" clip-path="url(#pe1e99a94cc)" style="fill: none; stroke-dasharray: 1.85,0.8; stroke-dashoffset: 0; stroke: #b2b2b2; stroke-width: 0.5"/>
     </g>
     <g id="line2d_8">
      <g>
       <use xlink:href="#mcb816da2bf" x="97.01139" y="252" style="stroke: #000000; stroke-width: 0.8"/>
      </g>
     </g>
     <g id="text_4">
      <text style="font: 10px 'sans-serif'; text-anchor: middle" x="97.01139" y="263.098437" transform="rotate(-0, 97.01139, 263.098437)">6</text>
     </g>
    </g>
    <g id="xtick_5">
     <g id="line2d_9">
      <path d="M 117.348519 252 
L 117.348519 34.56 
" clip-path="url(#pe1e99a94cc)" style="fill: none; stroke-dasharray: 1.85,0.8; stroke-dashoffset: 0; stroke: #b2b2b2; stroke-width: 0.5"/>
     </g>
     <g id="line2d_10">
      <g>
       <use xlink:href="#mcb816da2bf" x="117.348519" y="252" style="stroke: #000000; stroke-width: 0.8"/>
      </g>
     </g>
     <g id="text_5">
      <text style="font: 10px 'sans-serif'; text-anchor: middle" x="117.348519" y="263.098437" transform="rotate(-0, 117.348519, 263.098437)">8</text>
     </g>
    </g>
    <g id="xtick_6">
     <g id="line2d_11">
      <path d="M 137.685649 252 
L 137.685649 34.56 
" clip-path="url(#pe1e99a94cc)" style="fill: none; stroke-dasharray: 1.85,0.8; stroke-dashoffset: 0; stroke: #b2b2b2; stroke-width: 0.5"/>
     </g>
     <g id="line2d_12">
      <g>
       <use xlink:href="#mcb816da2bf" x="137.685649" y="252" style="stroke: #000000; stroke-width: 0.8"/>
      </g>
     </g>
     <g id="text_6">
      <text style="font: 10px 'sans-serif'; text-anchor: middle" x="137.685649" y="263.098437" transform="rotate(-0, 137.685649, 263.098437)">10</text>
     </g>
    </g>
    <g id="xtick_7">
     <g id="line2d_13">
      <path d="M 158.022779 252 
L 158.022779 34.56 
" clip-path="url(#pe1e99a94cc)" style="fill: none; stroke-dasharray: 1.85,0.8; stroke-dashoffset: 0; stroke: #b2b2b2; stroke-width: 0.5"/>
     </g>
     <g id="line2d_14">
      <g>
       <use xlink:href="#mcb816da2bf" x="158.022779" y="252" style="stroke: #000000; stroke-width: 0.8"/>
      </g>
     </g>
     <g id="text_7">
      <text style="font: 10px 'sans-serif'; text-anchor: middle" x="158.022779" y="263.098437" transform="rotate(-0, 158.022779, 263.098437)">12</text>
     </g>
    </g>
    <g id="xtick_8">
     <g id="line2d_15">
      <path d="M 178.359909 252 
L 178.359909 34.56 
" clip-path="url(#pe1e99a94cc)" style="fill: none; stroke-dasharray: 1.85,0.8; stroke-dashoffset: 0; stroke: #b2b2b2; stroke-width: 0.5"/>
     </g>
     <g id="line2d_16">
      <g>
       <use xlink:href="#mcb816da2bf" x="178.359909" y="252" style="stroke: #000000; stroke-width: 0.8"/>
      </g>
     </g>
     <g id="text_8">
      <text style="font: 10px 'sans-serif'; text-anchor: middle" x="178.359909" y="263.098437" transform="rotate(-0, 178.359909, 263.098437)">14</text>
     </g>
    </g>
    <g id="xtick_9">
     <g id="line2d_17">
      <path d="M 198.697039 252 
L 198.697039 34.56 
" clip-path="url(#pe1e99a94cc)" style="fill: none; stroke-dasharray: 1.85,0.8; stroke-dashoffset: 0; stroke: #b2b2b2; stroke-width: 0.5"/>
     </g>
     <g id="line2d_18">
      <g>
       <use xlink:href="#mcb816da2bf" x="198.697039" y="252" style="stroke: #000000; stroke-width: 0.8"/>
      </g>
     </g>
     <g id="text_9">
      <text style="font: 10px 'sans-serif'; text-anchor: middle" x="198.697039" y="263.098437" transform="rotate(-0, 198.697039, 263.098437)">16</text>
     </g>
    </g>
    <g id="xtick_10">
     <g id="line2d_19">
      <path d="M 219.034169 252 
L 219.034169 34.56 
" clip-path="url(#pe1e99a94cc)" style="fill: none; stroke-dasharray: 1.85,0.8; stroke-dashoffset: 0; stroke: #b2b2b2; stroke-width: 0.5"/>
     </g>
     <g id="line2d_20">
      <g>
       <use xlink:href="#mcb816da2bf" x="219.034169" y="252" style="stroke: #000000; stroke-width: 0.8"/>
      </g>
     </g>
     <g id="text_10">
      <text style="font: 10px 'sans-serif'; text-anchor: middle" x="219.034169" y="263.098437" transform="rotate(-0, 219.034169, 263.098437)">18</text>
     </g>
    </g>
    <g id="xtick_11">
     <g id="line2d_21">
      <path d="M 239.371298 252 
L 239.371298 34.56 
" clip-path="url(#pe1e99a94cc)" style="fill: none; stroke-dasharray: 1.85,0.8; stroke-dashoffset: 0; stroke: #b2b2b2; stroke-width: 0.5"/>
     </g>
     <g id="line2d_22">
      <g>
       <use xlink:href="#mcb816da2bf" x="239.371298" y="252" style="stroke: #000000; stroke-width: 0.8"/>
      </g>
     </g>
     <g id="text_11">
      <text style="font: 10px 'sans-serif'; text-anchor: middle" x="239.371298" y="263.098437" transform="rotate(-0, 239.371298, 263.098437)">20</text>
     </g>
    </g>
    <g id="text_12">
     <text style="font: 12px 'sans-serif'; text-anchor: middle" x="147.6" y="278.29625" transform="rotate(-0, 147.6, 278.29625)">Lineage Distance</text>
    </g>
   </g>
   <g id="matplotlib.axis_2">
    <g id="ytick_1">
     <g id="line2d_23">
      <path d="M 36 252 
L 259.2 252 
" clip-path="url(#pe1e99a94cc)" style="fill: none; stroke-dasharray: 1.85,0.8; stroke-dashoffset: 0; stroke: #b2b2b2; stroke-width: 0.5"/>
     </g>
     <g id="line2d_24">
      <defs>
       <path id="m3c4c64fd8b" d="M 0 0 
L 3.5 0 
" style="stroke: #000000; stroke-width: 0.8"/>
      </defs>
      <g>
       <use xlink:href="#m3c4c64fd8b" x="36" y="252" style="stroke: #000000; stroke-width: 0.8"/>
      </g>
     </g>
     <g id="text_13">
      <text style="font: 10px 'sans-serif'; text-anchor: end" x="32.5" y="255.799219" transform="rotate(-0, 32.5, 255.799219)">0</text>
     </g>
    </g>
    <g id="ytick_2">
     <g id="line2d_25">
      <path d="M 36 212.465455 
L 259.2 212.465455 
" clip-path="url(#pe1e99a94cc)" style="fill: none; stroke-dasharray: 1.85,0.8; stroke-dashoffset: 0; stroke: #b2b2b2; stroke-width: 0.5"/>
     </g>
     <g id="line2d_26">
      <g>
       <use xlink:href="#m3c4c64fd8b" x="36" y="212.465455" style="stroke: #000000; stroke-width: 0.8"/>
      </g>
     </g>
     <g id="text_14">
      <text style="font: 10px 'sans-serif'; text-anchor: end" x="32.5" y="216.264673" transform="rotate(-0, 32.5, 216.264673)">2</text>
     </g>
    </g>
    <g id="ytick_3">
     <g id="line2d_27">
      <path d="M 36 172.930909 
L 259.2 172.930909 
" clip-path="url(#pe1e99a94cc)" style="fill: none; stroke-dasharray: 1.85,0.8; stroke-dashoffset: 0; stroke: #b2b2b2; stroke-width: 0.5"/>
     </g>
     <g id="line2d_28">
      <g>
       <use xlink:href="#m3c4c64fd8b" x="36" y="172.930909" style="stroke: #000000; stroke-width: 0.8"/>
      </g>
     </g>
     <g id="text_15">
      <text style="font: 10px 'sans-serif'; text-anchor: end" x="32.5" y="176.730128" transform="rotate(-0, 32.5, 176.730128)">4</text>
     </g>
    </g>
    <g id="ytick_4">
     <g id="line2d_29">
      <path d="M 36 133.396364 
L 259.2 133.396364 
" clip-path="url(#pe1e99a94cc)" style="fill: none; stroke-dasharray: 1.85,0.8; stroke-dashoffset: 0; stroke: #b2b2b2; stroke-width: 0.5"/>
     </g>
     <g id="line2d_30">
      <g>
       <use xlink:href="#m3c4c64fd8b" x="36" y="133.396364" style="stroke: #000000; stroke-width: 0.8"/>
      </g>
     </g>
     <g id="text_16">
      <text style="font: 10px 'sans-serif'; text-anchor: end" x="32.5" y="137.195582" transform="rotate(-0, 32.5, 137.195582)">6</text>
     </g>
    </g>
    <g id="ytick_5">
     <g id="line2d_31">
      <path d="M 36 93.861818 
L 259.2 93.861818 
" clip-path="url(#pe1e99a94cc)" style="fill: none; stroke-dasharray: 1.85,0.8; stroke-dashoffset: 0; stroke: #b2b2b2; stroke-width: 0.5"/>
     </g>
     <g id="line2d_32">
      <g>
       <use xlink:href="#m3c4c64fd8b" x="36" y="93.861818" style="stroke: #000000; stroke-width: 0.8"/>
      </g>
     </g>
     <g id="text_17">
      <text style="font: 10px 'sans-serif'; text-anchor: end" x="32.5" y="97.661037" transform="rotate(-0, 32.5, 97.661037)">8</text>
     </g>
    </g>
    <g id="ytick_6">
     <g id="line2d_33">
      <path d="M 36 54.327273 
L 259.2 54.327273 
" clip-path="url(#pe1e99a94cc)" style="fill: none; stroke-dasharray: 1.85,0.8; stroke-dashoffset: 0; stroke: #b2b2b2; stroke-width: 0.5"/>
     </g>
     <g id="line2d_34">
      <g>
       <use xlink:href="#m3c4c64fd8b" x="36" y="54.327273" style="stroke: #000000; stroke-width: 0.8"/>
      </g>
     </g>
     <g id="text_18">
      <text style="font: 10px 'sans-serif'; text-anchor: end" x="32.5" y="58.126491" transform="rotate(-0, 32.5, 58.126491)">10</text>
     </g>
    </g>
    <g id="text_19">
     <text style="font: 12px 'sans-serif'; text-anchor: middle" x="13.279375" y="143.28" transform="rotate(-90, 13.279375, 143.28)">Connectome Overlap (Out)</text>
    </g>
   </g>
   <g id="line2d_35">
    <path d="M 56.33713 216.418909 
L 66.505695 93.861818 
L 76.67426 180.837818 
L 86.842825 192.698182 
L 97.01139 215.101091 
L 107.179954 203.68 
L 117.348519 182.155636 
L 127.517084 195.992727 
L 137.685649 201.483636 
L 147.854214 197.64 
L 158.022779 194.611144 
L 168.191344 199.134038 
L 178.359909 184.033076 
L 188.528474 196.208258 
L 198.697039 196.145962 
L 208.865604 211.086342 
L 219.034169 205.876364 
L 229.202733 207.523636 
L 239.371298 198.875455 
L 249.539863 232.232727 
" clip-path="url(#pe1e99a94cc)" style="fill: none; stroke: #0000ff; stroke-width: 2; stroke-linecap: square"/>
   </g>
   <g id="line2d_36">
    <path d="M 56.33713 167.989091 
L 66.505695 190.227273 
L 76.67426 193.686545 
L 86.842825 184.103715 
L 97.01139 208.917483 
L 107.179954 203.870988 
L 117.348519 212.465455 
L 127.517084 204.113086 
L 137.685649 205.018879 
L 147.854214 202.479925 
L 158.022779 201.374315 
L 168.191344 200.277343 
L 178.359909 203.327753 
L 188.528474 206.421231 
L 198.697039 218.601741 
L 208.865604 220.847337 
L 219.034169 217.179539 
L 229.202733 219.490188 
L 239.371298 234.717756 
L 249.539863 247.881818 
" clip-path="url(#pe1e99a94cc)" style="fill: none; stroke: #ff0000; stroke-width: 2; stroke-linecap: square"/>
   </g>
   <g id="patch_3">
    <path d="M 36 252 
L 36 34.56 
" style="fill: none; stroke: #bcbcbc; stroke-width: 0.8; stroke-linejoin: miter; stroke-linecap: square"/>
   </g>
   <g id="patch_4">
    <path d="M 259.2 252 
L 259.2 34.56 
" style="fill: none; stroke: #bcbcbc; stroke-width: 0.8; stroke-linejoin: miter; stroke-linecap: square"/>
   </g>
   <g id="patch_5">
    <path d="M 36 252 
L 259.2 252 
" style="fill: none; stroke: #bcbcbc; stroke-width: 0.8; stroke-linejoin: miter; stroke-linecap: square"/>
   </g>
   <g id="patch_6">
    <path d="M 36 34.56 
L 259.2 34.56 
" style="fill: none; stroke: #bcbcbc; stroke-width: 0.8; stroke-linejoin: miter; stroke-linecap: square"/>
   </g>
   <g id="legend_1">
    <g id="patch_7">
     <path d="M 113.553125 71.91625 
L 252.2 71.91625 
Q 254.2 71.91625 254.2 69.91625 
L 254.2 41.56 
Q 254.2 39.56 252.2 39.56 
L 113.553125 39.56 
Q 111.553125 39.56 111.553125 41.56 
L 111.553125 69.91625 
Q 111.553125 71.91625 113.553125 71.91625 
z
" style="fill: #eeeeee; opacity: 0.8; stroke: #cccccc; stroke-width: 0.5; stroke-linejoin: miter"/>
    </g>
    <g id="line2d_37">
     <path d="M 115.553125 47.658437 
L 125.553125 47.658437 
L 135.553125 47.658437 
" style="fill: none; stroke: #0000ff; stroke-width: 2; stroke-linecap: square"/>
    </g>
    <g id="text_20">
     <text style="font: 10px 'sans-serif'; text-anchor: start" x="143.553125" y="51.158437" transform="rotate(-0, 143.553125, 51.158437)">Matched cell type</text>
    </g>
    <g id="line2d_38">
     <path d="M 115.553125 62.336562 
L 125.553125 62.336562 
L 135.553125 62.336562 
" style="fill: none; stroke: #ff0000; stroke-width: 2; stroke-linecap: square"/>
    </g>
    <g id="text_21">
     <text style="font: 10px 'sans-serif'; text-anchor: start" x="143.553125" y="65.836562" transform="rotate(-0, 143.553125, 65.836562)">Mismatched cell type</text>
    </g>
   </g>
  </g>
 </g>
 <defs>
  <clipPath id="pe1e99a94cc">
   <rect x="36" y="34.56" width="223.2" height="217.44"/>
  </clipPath>
 </defs>
</svg>
