<?xml version="1.0" encoding="utf-8" standalone="no"?>
<!DOCTYPE svg PUBLIC "-//W3C//DTD SVG 1.1//EN"
  "http://www.w3.org/Graphics/SVG/1.1/DTD/svg11.dtd">
<svg xmlns:xlink="http://www.w3.org/1999/xlink" width="288pt" height="288pt" viewBox="0 0 288 288" xmlns="http://www.w3.org/2000/svg" version="1.1">
 <metadata>
  <rdf:RDF xmlns:dc="http://purl.org/dc/elements/1.1/" xmlns:cc="http://creativecommons.org/ns#" xmlns:rdf="http://www.w3.org/1999/02/22-rdf-syntax-ns#">
   <cc:Work>
    <dc:type rdf:resource="http://purl.org/dc/dcmitype/StillImage"/>
    <dc:date>2021-12-31T11:01:02.530335</dc:date>
    <dc:format>image/svg+xml</dc:format>
    <dc:creator>
     <cc:Agent>
      <dc:title>Matplotlib v3.5.0, https://matplotlib.org/</dc:title>
     </cc:Agent>
    </dc:creator>
   </cc:Work>
  </rdf:RDF>
 </metadata>
 <defs>
  <style type="text/css">*{stroke-linejoin: round; stroke-linecap: butt}</style>
 </defs>
 <g id="figure_1">
  <g id="patch_1">
   <path d="M 0 288 
L 288 288 
L 288 0 
L 0 0 
L 0 288 
z
" style="fill: none"/>
  </g>
  <g id="axes_1">
   <g id="patch_2">
    <path d="M 36 252 
L 259.2 252 
L 259.2 34.56 
L 36 34.56 
z
" style="fill: #eeeeee"/>
   </g>
   <g id="PolyCollection_1">
    <path d="M 56.33713 222.349091 
L 56.33713 252 
L 66.505695 252 
L 76.67426 244.615977 
L 86.842825 206.261311 
L 97.01139 242.493733 
L 97.01139 190.344086 
L 97.01139 190.344086 
L 86.842825 149.484143 
L 76.67426 214.201685 
L 66.505695 238.821818 
L 56.33713 222.349091 
z
" clip-path="url(#pdc67f0985e)" style="fill: #0000ff; fill-opacity: 0.25; stroke: #0000ff; stroke-opacity: 0.25; stroke-width: 0.5"/>
    <path d="M 117.348519 216.550044 
L 117.348519 232.101592 
L 127.517084 245.987021 
L 137.685649 233.858491 
L 147.854214 228.69187 
L 158.022779 220.199778 
L 168.191344 222.80433 
L 178.359909 213.155621 
L 188.528474 223.360024 
L 198.697039 233.508989 
L 208.865604 219.220493 
L 219.034169 218.836425 
L 229.202733 228.661662 
L 239.371298 252 
L 249.539863 252 
L 249.539863 252 
L 249.539863 252 
L 239.371298 246.14303 
L 229.202733 216.507169 
L 219.034169 210.305265 
L 208.865604 202.726677 
L 198.697039 222.171011 
L 188.528474 213.284824 
L 178.359909 197.61366 
L 168.191344 198.036799 
L 158.022779 205.629644 
L 147.854214 207.534624 
L 137.685649 213.96084 
L 127.517084 230.338797 
L 117.348519 216.550044 
z
" clip-path="url(#pdc67f0985e)" style="fill: #0000ff; fill-opacity: 0.25; stroke: #0000ff; stroke-opacity: 0.25; stroke-width: 0.5"/>
   </g>
   <g id="PolyCollection_2">
    <defs>
     <path id="mccef9c394b" d="M 56.33713 -81.125762 
L 56.33713 -48.655497 
L 66.505695 -44.851615 
L 76.67426 -41.293474 
L 86.842825 -49.857668 
L 97.01139 -50.89334 
L 107.179954 -46.751462 
L 117.348519 -55.544385 
L 127.517084 -58.806834 
L 137.685649 -53.17038 
L 147.854214 -50.753668 
L 158.022779 -61.331656 
L 168.191344 -51.695571 
L 178.359909 -63.727224 
L 188.528474 -52.788896 
L 198.697039 -53.376555 
L 208.865604 -54.38682 
L 219.034169 -55.966045 
L 229.202733 -51.944842 
L 239.371298 -42.862515 
L 249.539863 -38.604517 
L 249.539863 -43.708843 
L 249.539863 -43.708843 
L 239.371298 -46.735179 
L 229.202733 -55.214979 
L 219.034169 -58.716872 
L 208.865604 -59.319954 
L 198.697039 -57.251234 
L 188.528474 -56.155718 
L 178.359909 -68.769825 
L 168.191344 -57.356129 
L 158.022779 -68.449603 
L 147.854214 -58.950575 
L 137.685649 -59.334339 
L 127.517084 -68.974785 
L 117.348519 -65.040237 
L 107.179954 -59.681852 
L 97.01139 -63.061688 
L 86.842825 -65.912722 
L 76.67426 -50.473798 
L 66.505695 -86.450203 
L 56.33713 -81.125762 
z
" style="stroke: #ff0000; stroke-opacity: 0.25; stroke-width: 0.5"/>
    </defs>
    <g clip-path="url(#pdc67f0985e)">
     <use xlink:href="#mccef9c394b" x="0" y="288" style="fill: #ff0000; fill-opacity: 0.25; stroke: #ff0000; stroke-opacity: 0.25; stroke-width: 0.5"/>
    </g>
   </g>
   <g id="matplotlib.axis_1">
    <g id="xtick_1">
     <g id="line2d_1">
      <path d="M 36 252 
L 36 34.56 
" clip-path="url(#pdc67f0985e)" style="fill: none; stroke-dasharray: 1.85,0.8; stroke-dashoffset: 0; stroke: #b2b2b2; stroke-width: 0.5"/>
     </g>
     <g id="line2d_2">
      <defs>
       <path id="m3894fe6b3d" d="M 0 0 
L 0 -3.5 
" style="stroke: #000000; stroke-width: 0.8"/>
      </defs>
      <g>
       <use xlink:href="#m3894fe6b3d" x="36" y="252" style="stroke: #000000; stroke-width: 0.8"/>
      </g>
     </g>
     <g id="text_1">
      <text style="font: 10px 'sans-serif'; text-anchor: middle" x="36" y="263.098437" transform="rotate(-0, 36, 263.098437)">0</text>
     </g>
    </g>
    <g id="xtick_2">
     <g id="line2d_3">
      <path d="M 56.33713 252 
L 56.33713 34.56 
" clip-path="url(#pdc67f0985e)" style="fill: none; stroke-dasharray: 1.85,0.8; stroke-dashoffset: 0; stroke: #b2b2b2; stroke-width: 0.5"/>
     </g>
     <g id="line2d_4">
      <g>
       <use xlink:href="#m3894fe6b3d" x="56.33713" y="252" style="stroke: #000000; stroke-width: 0.8"/>
      </g>
     </g>
     <g id="text_2">
      <text style="font: 10px 'sans-serif'; text-anchor: middle" x="56.33713" y="263.098437" transform="rotate(-0, 56.33713, 263.098437)">2</text>
     </g>
    </g>
    <g id="xtick_3">
     <g id="line2d_5">
      <path d="M 76.67426 252 
L 76.67426 34.56 
" clip-path="url(#pdc67f0985e)" style="fill: none; stroke-dasharray: 1.85,0.8; stroke-dashoffset: 0; stroke: #b2b2b2; stroke-width: 0.5"/>
     </g>
     <g id="line2d_6">
      <g>
       <use xlink:href="#m3894fe6b3d" x="76.67426" y="252" style="stroke: #000000; stroke-width: 0.8"/>
      </g>
     </g>
     <g id="text_3">
      <text style="font: 10px 'sans-serif'; text-anchor: middle" x="76.67426" y="263.098437" transform="rotate(-0, 76.67426, 263.098437)">4</text>
     </g>
    </g>
    <g id="xtick_4">
     <g id="line2d_7">
      <path d="M 97.01139 252 
L 97.01139 34.56 
" clip-path="url(#pdc67f0985e)" style="fill: none; stroke-dasharray: 1.85,0.8; stroke-dashoffset: 0; stroke: #b2b2b2; stroke-width: 0.5"/>
     </g>
     <g id="line2d_8">
      <g>
       <use xlink:href="#m3894fe6b3d" x="97.01139" y="252" style="stroke: #000000; stroke-width: 0.8"/>
      </g>
     </g>
     <g id="text_4">
      <text style="font: 10px 'sans-serif'; text-anchor: middle" x="97.01139" y="263.098437" transform="rotate(-0, 97.01139, 263.098437)">6</text>
     </g>
    </g>
    <g id="xtick_5">
     <g id="line2d_9">
      <path d="M 117.348519 252 
L 117.348519 34.56 
" clip-path="url(#pdc67f0985e)" style="fill: none; stroke-dasharray: 1.85,0.8; stroke-dashoffset: 0; stroke: #b2b2b2; stroke-width: 0.5"/>
     </g>
     <g id="line2d_10">
      <g>
       <use xlink:href="#m3894fe6b3d" x="117.348519" y="252" style="stroke: #000000; stroke-width: 0.8"/>
      </g>
     </g>
     <g id="text_5">
      <text style="font: 10px 'sans-serif'; text-anchor: middle" x="117.348519" y="263.098437" transform="rotate(-0, 117.348519, 263.098437)">8</text>
     </g>
    </g>
    <g id="xtick_6">
     <g id="line2d_11">
      <path d="M 137.685649 252 
L 137.685649 34.56 
" clip-path="url(#pdc67f0985e)" style="fill: none; stroke-dasharray: 1.85,0.8; stroke-dashoffset: 0; stroke: #b2b2b2; stroke-width: 0.5"/>
     </g>
     <g id="line2d_12">
      <g>
       <use xlink:href="#m3894fe6b3d" x="137.685649" y="252" style="stroke: #000000; stroke-width: 0.8"/>
      </g>
     </g>
     <g id="text_6">
      <text style="font: 10px 'sans-serif'; text-anchor: middle" x="137.685649" y="263.098437" transform="rotate(-0, 137.685649, 263.098437)">10</text>
     </g>
    </g>
    <g id="xtick_7">
     <g id="line2d_13">
      <path d="M 158.022779 252 
L 158.022779 34.56 
" clip-path="url(#pdc67f0985e)" style="fill: none; stroke-dasharray: 1.85,0.8; stroke-dashoffset: 0; stroke: #b2b2b2; stroke-width: 0.5"/>
     </g>
     <g id="line2d_14">
      <g>
       <use xlink:href="#m3894fe6b3d" x="158.022779" y="252" style="stroke: #000000; stroke-width: 0.8"/>
      </g>
     </g>
     <g id="text_7">
      <text style="font: 10px 'sans-serif'; text-anchor: middle" x="158.022779" y="263.098437" transform="rotate(-0, 158.022779, 263.098437)">12</text>
     </g>
    </g>
    <g id="xtick_8">
     <g id="line2d_15">
      <path d="M 178.359909 252 
L 178.359909 34.56 
" clip-path="url(#pdc67f0985e)" style="fill: none; stroke-dasharray: 1.85,0.8; stroke-dashoffset: 0; stroke: #b2b2b2; stroke-width: 0.5"/>
     </g>
     <g id="line2d_16">
      <g>
       <use xlink:href="#m3894fe6b3d" x="178.359909" y="252" style="stroke: #000000; stroke-width: 0.8"/>
      </g>
     </g>
     <g id="text_8">
      <text style="font: 10px 'sans-serif'; text-anchor: middle" x="178.359909" y="263.098437" transform="rotate(-0, 178.359909, 263.098437)">14</text>
     </g>
    </g>
    <g id="xtick_9">
     <g id="line2d_17">
      <path d="M 198.697039 252 
L 198.697039 34.56 
" clip-path="url(#pdc67f0985e)" style="fill: none; stroke-dasharray: 1.85,0.8; stroke-dashoffset: 0; stroke: #b2b2b2; stroke-width: 0.5"/>
     </g>
     <g id="line2d_18">
      <g>
       <use xlink:href="#m3894fe6b3d" x="198.697039" y="252" style="stroke: #000000; stroke-width: 0.8"/>
      </g>
     </g>
     <g id="text_9">
      <text style="font: 10px 'sans-serif'; text-anchor: middle" x="198.697039" y="263.098437" transform="rotate(-0, 198.697039, 263.098437)">16</text>
     </g>
    </g>
    <g id="xtick_10">
     <g id="line2d_19">
      <path d="M 219.034169 252 
L 219.034169 34.56 
" clip-path="url(#pdc67f0985e)" style="fill: none; stroke-dasharray: 1.85,0.8; stroke-dashoffset: 0; stroke: #b2b2b2; stroke-width: 0.5"/>
     </g>
     <g id="line2d_20">
      <g>
       <use xlink:href="#m3894fe6b3d" x="219.034169" y="252" style="stroke: #000000; stroke-width: 0.8"/>
      </g>
     </g>
     <g id="text_10">
      <text style="font: 10px 'sans-serif'; text-anchor: middle" x="219.034169" y="263.098437" transform="rotate(-0, 219.034169, 263.098437)">18</text>
     </g>
    </g>
    <g id="xtick_11">
     <g id="line2d_21">
      <path d="M 239.371298 252 
L 239.371298 34.56 
" clip-path="url(#pdc67f0985e)" style="fill: none; stroke-dasharray: 1.85,0.8; stroke-dashoffset: 0; stroke: #b2b2b2; stroke-width: 0.5"/>
     </g>
     <g id="line2d_22">
      <g>
       <use xlink:href="#m3894fe6b3d" x="239.371298" y="252" style="stroke: #000000; stroke-width: 0.8"/>
      </g>
     </g>
     <g id="text_11">
      <text style="font: 10px 'sans-serif'; text-anchor: middle" x="239.371298" y="263.098437" transform="rotate(-0, 239.371298, 263.098437)">20</text>
     </g>
    </g>
    <g id="text_12">
     <text style="font: 12px 'sans-serif'; text-anchor: middle" x="147.6" y="278.29625" transform="rotate(-0, 147.6, 278.29625)">Lineage Distance</text>
    </g>
   </g>
   <g id="matplotlib.axis_2">
    <g id="ytick_1">
     <g id="line2d_23">
      <path d="M 36 252 
L 259.2 252 
" clip-path="url(#pdc67f0985e)" style="fill: none; stroke-dasharray: 1.85,0.8; stroke-dashoffset: 0; stroke: #b2b2b2; stroke-width: 0.5"/>
     </g>
     <g id="line2d_24">
      <defs>
       <path id="m09963b22b0" d="M 0 0 
L 3.5 0 
" style="stroke: #000000; stroke-width: 0.8"/>
      </defs>
      <g>
       <use xlink:href="#m09963b22b0" x="36" y="252" style="stroke: #000000; stroke-width: 0.8"/>
      </g>
     </g>
     <g id="text_13">
      <text style="font: 10px 'sans-serif'; text-anchor: end" x="32.5" y="255.799219" transform="rotate(-0, 32.5, 255.799219)">0</text>
     </g>
    </g>
    <g id="ytick_2">
     <g id="line2d_25">
      <path d="M 36 212.465455 
L 259.2 212.465455 
" clip-path="url(#pdc67f0985e)" style="fill: none; stroke-dasharray: 1.85,0.8; stroke-dashoffset: 0; stroke: #b2b2b2; stroke-width: 0.5"/>
     </g>
     <g id="line2d_26">
      <g>
       <use xlink:href="#m09963b22b0" x="36" y="212.465455" style="stroke: #000000; stroke-width: 0.8"/>
      </g>
     </g>
     <g id="text_14">
      <text style="font: 10px 'sans-serif'; text-anchor: end" x="32.5" y="216.264673" transform="rotate(-0, 32.5, 216.264673)">2</text>
     </g>
    </g>
    <g id="ytick_3">
     <g id="line2d_27">
      <path d="M 36 172.930909 
L 259.2 172.930909 
" clip-path="url(#pdc67f0985e)" style="fill: none; stroke-dasharray: 1.85,0.8; stroke-dashoffset: 0; stroke: #b2b2b2; stroke-width: 0.5"/>
     </g>
     <g id="line2d_28">
      <g>
       <use xlink:href="#m09963b22b0" x="36" y="172.930909" style="stroke: #000000; stroke-width: 0.8"/>
      </g>
     </g>
     <g id="text_15">
      <text style="font: 10px 'sans-serif'; text-anchor: end" x="32.5" y="176.730128" transform="rotate(-0, 32.5, 176.730128)">4</text>
     </g>
    </g>
    <g id="ytick_4">
     <g id="line2d_29">
      <path d="M 36 133.396364 
L 259.2 133.396364 
" clip-path="url(#pdc67f0985e)" style="fill: none; stroke-dasharray: 1.85,0.8; stroke-dashoffset: 0; stroke: #b2b2b2; stroke-width: 0.5"/>
     </g>
     <g id="line2d_30">
      <g>
       <use xlink:href="#m09963b22b0" x="36" y="133.396364" style="stroke: #000000; stroke-width: 0.8"/>
      </g>
     </g>
     <g id="text_16">
      <text style="font: 10px 'sans-serif'; text-anchor: end" x="32.5" y="137.195582" transform="rotate(-0, 32.5, 137.195582)">6</text>
     </g>
    </g>
    <g id="ytick_5">
     <g id="line2d_31">
      <path d="M 36 93.861818 
L 259.2 93.861818 
" clip-path="url(#pdc67f0985e)" style="fill: none; stroke-dasharray: 1.85,0.8; stroke-dashoffset: 0; stroke: #b2b2b2; stroke-width: 0.5"/>
     </g>
     <g id="line2d_32">
      <g>
       <use xlink:href="#m09963b22b0" x="36" y="93.861818" style="stroke: #000000; stroke-width: 0.8"/>
      </g>
     </g>
     <g id="text_17">
      <text style="font: 10px 'sans-serif'; text-anchor: end" x="32.5" y="97.661037" transform="rotate(-0, 32.5, 97.661037)">8</text>
     </g>
    </g>
    <g id="ytick_6">
     <g id="line2d_33">
      <path d="M 36 54.327273 
L 259.2 54.327273 
" clip-path="url(#pdc67f0985e)" style="fill: none; stroke-dasharray: 1.85,0.8; stroke-dashoffset: 0; stroke: #b2b2b2; stroke-width: 0.5"/>
     </g>
     <g id="line2d_34">
      <g>
       <use xlink:href="#m09963b22b0" x="36" y="54.327273" style="stroke: #000000; stroke-width: 0.8"/>
      </g>
     </g>
     <g id="text_18">
      <text style="font: 10px 'sans-serif'; text-anchor: end" x="32.5" y="58.126491" transform="rotate(-0, 32.5, 58.126491)">10</text>
     </g>
    </g>
    <g id="text_19">
     <text style="font: 12px 'sans-serif'; text-anchor: middle" x="13.279375" y="143.28" transform="rotate(-90, 13.279375, 143.28)">Connectome Overlap (Out)</text>
    </g>
   </g>
   <g id="line2d_35">
    <path d="M 56.33713 237.174545 
L 66.505695 245.410909 
L 76.67426 229.408831 
L 86.842825 177.872727 
L 97.01139 216.418909 
L 107.179954 153.163636 
L 117.348519 224.325818 
L 127.517084 238.162909 
L 137.685649 223.909665 
L 147.854214 218.113247 
L 158.022779 212.914711 
L 168.191344 210.420564 
L 178.359909 205.38464 
L 188.528474 218.322424 
L 198.697039 227.84 
L 208.865604 210.973585 
L 219.034169 214.570845 
L 229.202733 222.584416 
L 239.371298 249.071515 
L 249.539863 252 
" clip-path="url(#pdc67f0985e)" style="fill: none; stroke: #0000ff; stroke-width: 2; stroke-linecap: square"/>
   </g>
   <g id="line2d_36">
    <path d="M 56.33713 223.109371 
L 66.505695 222.349091 
L 76.67426 242.116364 
L 86.842825 230.114805 
L 97.01139 231.022486 
L 107.179954 234.783343 
L 117.348519 227.707689 
L 127.517084 224.109191 
L 137.685649 231.747641 
L 147.854214 233.147879 
L 158.022779 223.109371 
L 168.191344 233.47415 
L 178.359909 221.751476 
L 188.528474 233.527693 
L 198.697039 232.686105 
L 208.865604 231.146613 
L 219.034169 230.658542 
L 229.202733 234.420089 
L 239.371298 243.201153 
L 249.539863 246.84332 
" clip-path="url(#pdc67f0985e)" style="fill: none; stroke: #ff0000; stroke-width: 2; stroke-linecap: square"/>
   </g>
   <g id="patch_3">
    <path d="M 36 252 
L 36 34.56 
" style="fill: none; stroke: #bcbcbc; stroke-width: 0.8; stroke-linejoin: miter; stroke-linecap: square"/>
   </g>
   <g id="patch_4">
    <path d="M 259.2 252 
L 259.2 34.56 
" style="fill: none; stroke: #bcbcbc; stroke-width: 0.8; stroke-linejoin: miter; stroke-linecap: square"/>
   </g>
   <g id="patch_5">
    <path d="M 36 252 
L 259.2 252 
" style="fill: none; stroke: #bcbcbc; stroke-width: 0.8; stroke-linejoin: miter; stroke-linecap: square"/>
   </g>
   <g id="patch_6">
    <path d="M 36 34.56 
L 259.2 34.56 
" style="fill: none; stroke: #bcbcbc; stroke-width: 0.8; stroke-linejoin: miter; stroke-linecap: square"/>
   </g>
   <g id="legend_1">
    <g id="patch_7">
     <path d="M 113.553125 71.91625 
L 252.2 71.91625 
Q 254.2 71.91625 254.2 69.91625 
L 254.2 41.56 
Q 254.2 39.56 252.2 39.56 
L 113.553125 39.56 
Q 111.553125 39.56 111.553125 41.56 
L 111.553125 69.91625 
Q 111.553125 71.91625 113.553125 71.91625 
z
" style="fill: #eeeeee; opacity: 0.8; stroke: #cccccc; stroke-width: 0.5; stroke-linejoin: miter"/>
    </g>
    <g id="line2d_37">
     <path d="M 115.553125 47.658437 
L 125.553125 47.658437 
L 135.553125 47.658437 
" style="fill: none; stroke: #0000ff; stroke-width: 2; stroke-linecap: square"/>
    </g>
    <g id="text_20">
     <text style="font: 10px 'sans-serif'; text-anchor: start" x="143.553125" y="51.158437" transform="rotate(-0, 143.553125, 51.158437)">Matched cell type</text>
    </g>
    <g id="line2d_38">
     <path d="M 115.553125 62.336562 
L 125.553125 62.336562 
L 135.553125 62.336562 
" style="fill: none; stroke: #ff0000; stroke-width: 2; stroke-linecap: square"/>
    </g>
    <g id="text_21">
     <text style="font: 10px 'sans-serif'; text-anchor: start" x="143.553125" y="65.836562" transform="rotate(-0, 143.553125, 65.836562)">Mismatched cell type</text>
    </g>
   </g>
  </g>
 </g>
 <defs>
  <clipPath id="pdc67f0985e">
   <rect x="36" y="34.56" width="223.2" height="217.44"/>
  </clipPath>
 </defs>
</svg>
