<?xml version="1.0" encoding="utf-8" standalone="no"?>
<!DOCTYPE svg PUBLIC "-//W3C//DTD SVG 1.1//EN"
  "http://www.w3.org/Graphics/SVG/1.1/DTD/svg11.dtd">
<svg xmlns:xlink="http://www.w3.org/1999/xlink" width="288pt" height="288pt" viewBox="0 0 288 288" xmlns="http://www.w3.org/2000/svg" version="1.1">
 <metadata>
  <rdf:RDF xmlns:dc="http://purl.org/dc/elements/1.1/" xmlns:cc="http://creativecommons.org/ns#" xmlns:rdf="http://www.w3.org/1999/02/22-rdf-syntax-ns#">
   <cc:Work>
    <dc:type rdf:resource="http://purl.org/dc/dcmitype/StillImage"/>
    <dc:date>2021-12-31T10:02:27.507642</dc:date>
    <dc:format>image/svg+xml</dc:format>
    <dc:creator>
     <cc:Agent>
      <dc:title>Matplotlib v3.5.0, https://matplotlib.org/</dc:title>
     </cc:Agent>
    </dc:creator>
   </cc:Work>
  </rdf:RDF>
 </metadata>
 <defs>
  <style type="text/css">*{stroke-linejoin: round; stroke-linecap: butt}</style>
 </defs>
 <g id="figure_1">
  <g id="patch_1">
   <path d="M 0 288 
L 288 288 
L 288 0 
L 0 0 
L 0 288 
z
" style="fill: none"/>
  </g>
  <g id="axes_1">
   <g id="patch_2">
    <path d="M 36 252 
L 259.2 252 
L 259.2 34.56 
L 36 34.56 
z
" style="fill: #eeeeee"/>
   </g>
   <g id="PolyCollection_1">
    <path d="M 56.33713 207.093109 
L 56.33713 241.558527 
L 56.33713 207.093109 
L 56.33713 207.093109 
z
" clip-path="url(#p1decb6fd2b)" style="fill: #0000ff; fill-opacity: 0.25; stroke: #0000ff; stroke-opacity: 0.25; stroke-width: 0.5"/>
    <path d="M 76.67426 238.821818 
L 76.67426 252 
L 86.842825 246.000331 
L 97.01139 247.154052 
L 107.179954 203.860529 
L 117.348519 229.151476 
L 127.517084 236.546761 
L 137.685649 222.003848 
L 147.854214 222.945968 
L 158.022779 229.387712 
L 168.191344 224.286738 
L 178.359909 221.971448 
L 188.528474 227.596596 
L 198.697039 235.698079 
L 208.865604 216.582639 
L 219.034169 229.372035 
L 229.202733 199.324772 
L 239.371298 242.555849 
L 239.371298 221.909606 
L 239.371298 221.909606 
L 229.202733 179.695052 
L 219.034169 222.332269 
L 208.865604 189.371688 
L 198.697039 225.426428 
L 188.528474 218.651961 
L 178.359909 212.311719 
L 168.191344 209.896937 
L 158.022779 214.451023 
L 147.854214 186.171123 
L 137.685649 207.016841 
L 127.517084 212.104875 
L 117.348519 215.546706 
L 107.179954 126.187471 
L 97.01139 223.900493 
L 86.842825 208.581487 
L 76.67426 238.821818 
z
" clip-path="url(#p1decb6fd2b)" style="fill: #0000ff; fill-opacity: 0.25; stroke: #0000ff; stroke-opacity: 0.25; stroke-width: 0.5"/>
   </g>
   <g id="PolyCollection_2">
    <defs>
     <path id="m9cc1516eee" d="M 56.33713 -62.455699 
L 56.33713 -42.489755 
L 66.505695 -57.61028 
L 76.67426 -52.733666 
L 86.842825 -46.61727 
L 97.01139 -55.407011 
L 107.179954 -46.107314 
L 117.348519 -52.292231 
L 127.517084 -52.513723 
L 137.685649 -50.40996 
L 147.854214 -52.560381 
L 158.022779 -56.85967 
L 168.191344 -58.839526 
L 178.359909 -55.126743 
L 188.528474 -50.944051 
L 198.697039 -59.746206 
L 208.865604 -59.478005 
L 219.034169 -53.569362 
L 229.202733 -64.398503 
L 239.371298 -57.785308 
L 249.539863 -54.290897 
L 249.539863 -72.069103 
L 249.539863 -72.069103 
L 239.371298 -64.338848 
L 229.202733 -68.531209 
L 219.034169 -56.18835 
L 208.865604 -64.534221 
L 198.697039 -64.363401 
L 188.528474 -53.888447 
L 178.359909 -58.952105 
L 168.191344 -65.245669 
L 158.022779 -62.543401 
L 147.854214 -60.424973 
L 137.685649 -55.698275 
L 127.517084 -63.353376 
L 117.348519 -60.194954 
L 107.179954 -59.570262 
L 97.01139 -68.364418 
L 86.842825 -59.269483 
L 76.67426 -71.380053 
L 66.505695 -93.458811 
L 56.33713 -62.455699 
z
" style="stroke: #ff0000; stroke-opacity: 0.25; stroke-width: 0.5"/>
    </defs>
    <g clip-path="url(#p1decb6fd2b)">
     <use xlink:href="#m9cc1516eee" x="0" y="288" style="fill: #ff0000; fill-opacity: 0.25; stroke: #ff0000; stroke-opacity: 0.25; stroke-width: 0.5"/>
    </g>
   </g>
   <g id="matplotlib.axis_1">
    <g id="xtick_1">
     <g id="line2d_1">
      <path d="M 36 252 
L 36 34.56 
" clip-path="url(#p1decb6fd2b)" style="fill: none; stroke-dasharray: 1.85,0.8; stroke-dashoffset: 0; stroke: #b2b2b2; stroke-width: 0.5"/>
     </g>
     <g id="line2d_2">
      <defs>
       <path id="m60d40313a5" d="M 0 0 
L 0 -3.5 
" style="stroke: #000000; stroke-width: 0.8"/>
      </defs>
      <g>
       <use xlink:href="#m60d40313a5" x="36" y="252" style="stroke: #000000; stroke-width: 0.8"/>
      </g>
     </g>
     <g id="text_1">
      <text style="font: 10px 'sans-serif'; text-anchor: middle" x="36" y="263.098437" transform="rotate(-0, 36, 263.098437)">0</text>
     </g>
    </g>
    <g id="xtick_2">
     <g id="line2d_3">
      <path d="M 56.33713 252 
L 56.33713 34.56 
" clip-path="url(#p1decb6fd2b)" style="fill: none; stroke-dasharray: 1.85,0.8; stroke-dashoffset: 0; stroke: #b2b2b2; stroke-width: 0.5"/>
     </g>
     <g id="line2d_4">
      <g>
       <use xlink:href="#m60d40313a5" x="56.33713" y="252" style="stroke: #000000; stroke-width: 0.8"/>
      </g>
     </g>
     <g id="text_2">
      <text style="font: 10px 'sans-serif'; text-anchor: middle" x="56.33713" y="263.098437" transform="rotate(-0, 56.33713, 263.098437)">2</text>
     </g>
    </g>
    <g id="xtick_3">
     <g id="line2d_5">
      <path d="M 76.67426 252 
L 76.67426 34.56 
" clip-path="url(#p1decb6fd2b)" style="fill: none; stroke-dasharray: 1.85,0.8; stroke-dashoffset: 0; stroke: #b2b2b2; stroke-width: 0.5"/>
     </g>
     <g id="line2d_6">
      <g>
       <use xlink:href="#m60d40313a5" x="76.67426" y="252" style="stroke: #000000; stroke-width: 0.8"/>
      </g>
     </g>
     <g id="text_3">
      <text style="font: 10px 'sans-serif'; text-anchor: middle" x="76.67426" y="263.098437" transform="rotate(-0, 76.67426, 263.098437)">4</text>
     </g>
    </g>
    <g id="xtick_4">
     <g id="line2d_7">
      <path d="M 97.01139 252 
L 97.01139 34.56 
" clip-path="url(#p1decb6fd2b)" style="fill: none; stroke-dasharray: 1.85,0.8; stroke-dashoffset: 0; stroke: #b2b2b2; stroke-width: 0.5"/>
     </g>
     <g id="line2d_8">
      <g>
       <use xlink:href="#m60d40313a5" x="97.01139" y="252" style="stroke: #000000; stroke-width: 0.8"/>
      </g>
     </g>
     <g id="text_4">
      <text style="font: 10px 'sans-serif'; text-anchor: middle" x="97.01139" y="263.098437" transform="rotate(-0, 97.01139, 263.098437)">6</text>
     </g>
    </g>
    <g id="xtick_5">
     <g id="line2d_9">
      <path d="M 117.348519 252 
L 117.348519 34.56 
" clip-path="url(#p1decb6fd2b)" style="fill: none; stroke-dasharray: 1.85,0.8; stroke-dashoffset: 0; stroke: #b2b2b2; stroke-width: 0.5"/>
     </g>
     <g id="line2d_10">
      <g>
       <use xlink:href="#m60d40313a5" x="117.348519" y="252" style="stroke: #000000; stroke-width: 0.8"/>
      </g>
     </g>
     <g id="text_5">
      <text style="font: 10px 'sans-serif'; text-anchor: middle" x="117.348519" y="263.098437" transform="rotate(-0, 117.348519, 263.098437)">8</text>
     </g>
    </g>
    <g id="xtick_6">
     <g id="line2d_11">
      <path d="M 137.685649 252 
L 137.685649 34.56 
" clip-path="url(#p1decb6fd2b)" style="fill: none; stroke-dasharray: 1.85,0.8; stroke-dashoffset: 0; stroke: #b2b2b2; stroke-width: 0.5"/>
     </g>
     <g id="line2d_12">
      <g>
       <use xlink:href="#m60d40313a5" x="137.685649" y="252" style="stroke: #000000; stroke-width: 0.8"/>
      </g>
     </g>
     <g id="text_6">
      <text style="font: 10px 'sans-serif'; text-anchor: middle" x="137.685649" y="263.098437" transform="rotate(-0, 137.685649, 263.098437)">10</text>
     </g>
    </g>
    <g id="xtick_7">
     <g id="line2d_13">
      <path d="M 158.022779 252 
L 158.022779 34.56 
" clip-path="url(#p1decb6fd2b)" style="fill: none; stroke-dasharray: 1.85,0.8; stroke-dashoffset: 0; stroke: #b2b2b2; stroke-width: 0.5"/>
     </g>
     <g id="line2d_14">
      <g>
       <use xlink:href="#m60d40313a5" x="158.022779" y="252" style="stroke: #000000; stroke-width: 0.8"/>
      </g>
     </g>
     <g id="text_7">
      <text style="font: 10px 'sans-serif'; text-anchor: middle" x="158.022779" y="263.098437" transform="rotate(-0, 158.022779, 263.098437)">12</text>
     </g>
    </g>
    <g id="xtick_8">
     <g id="line2d_15">
      <path d="M 178.359909 252 
L 178.359909 34.56 
" clip-path="url(#p1decb6fd2b)" style="fill: none; stroke-dasharray: 1.85,0.8; stroke-dashoffset: 0; stroke: #b2b2b2; stroke-width: 0.5"/>
     </g>
     <g id="line2d_16">
      <g>
       <use xlink:href="#m60d40313a5" x="178.359909" y="252" style="stroke: #000000; stroke-width: 0.8"/>
      </g>
     </g>
     <g id="text_8">
      <text style="font: 10px 'sans-serif'; text-anchor: middle" x="178.359909" y="263.098437" transform="rotate(-0, 178.359909, 263.098437)">14</text>
     </g>
    </g>
    <g id="xtick_9">
     <g id="line2d_17">
      <path d="M 198.697039 252 
L 198.697039 34.56 
" clip-path="url(#p1decb6fd2b)" style="fill: none; stroke-dasharray: 1.85,0.8; stroke-dashoffset: 0; stroke: #b2b2b2; stroke-width: 0.5"/>
     </g>
     <g id="line2d_18">
      <g>
       <use xlink:href="#m60d40313a5" x="198.697039" y="252" style="stroke: #000000; stroke-width: 0.8"/>
      </g>
     </g>
     <g id="text_9">
      <text style="font: 10px 'sans-serif'; text-anchor: middle" x="198.697039" y="263.098437" transform="rotate(-0, 198.697039, 263.098437)">16</text>
     </g>
    </g>
    <g id="xtick_10">
     <g id="line2d_19">
      <path d="M 219.034169 252 
L 219.034169 34.56 
" clip-path="url(#p1decb6fd2b)" style="fill: none; stroke-dasharray: 1.85,0.8; stroke-dashoffset: 0; stroke: #b2b2b2; stroke-width: 0.5"/>
     </g>
     <g id="line2d_20">
      <g>
       <use xlink:href="#m60d40313a5" x="219.034169" y="252" style="stroke: #000000; stroke-width: 0.8"/>
      </g>
     </g>
     <g id="text_10">
      <text style="font: 10px 'sans-serif'; text-anchor: middle" x="219.034169" y="263.098437" transform="rotate(-0, 219.034169, 263.098437)">18</text>
     </g>
    </g>
    <g id="xtick_11">
     <g id="line2d_21">
      <path d="M 239.371298 252 
L 239.371298 34.56 
" clip-path="url(#p1decb6fd2b)" style="fill: none; stroke-dasharray: 1.85,0.8; stroke-dashoffset: 0; stroke: #b2b2b2; stroke-width: 0.5"/>
     </g>
     <g id="line2d_22">
      <g>
       <use xlink:href="#m60d40313a5" x="239.371298" y="252" style="stroke: #000000; stroke-width: 0.8"/>
      </g>
     </g>
     <g id="text_11">
      <text style="font: 10px 'sans-serif'; text-anchor: middle" x="239.371298" y="263.098437" transform="rotate(-0, 239.371298, 263.098437)">20</text>
     </g>
    </g>
    <g id="text_12">
     <text style="font: 12px 'sans-serif'; text-anchor: middle" x="147.6" y="278.29625" transform="rotate(-0, 147.6, 278.29625)">Lineage Distance</text>
    </g>
   </g>
   <g id="matplotlib.axis_2">
    <g id="ytick_1">
     <g id="line2d_23">
      <path d="M 36 252 
L 259.2 252 
" clip-path="url(#p1decb6fd2b)" style="fill: none; stroke-dasharray: 1.85,0.8; stroke-dashoffset: 0; stroke: #b2b2b2; stroke-width: 0.5"/>
     </g>
     <g id="line2d_24">
      <defs>
       <path id="m8c83a602c1" d="M 0 0 
L 3.5 0 
" style="stroke: #000000; stroke-width: 0.8"/>
      </defs>
      <g>
       <use xlink:href="#m8c83a602c1" x="36" y="252" style="stroke: #000000; stroke-width: 0.8"/>
      </g>
     </g>
     <g id="text_13">
      <text style="font: 10px 'sans-serif'; text-anchor: end" x="32.5" y="255.799219" transform="rotate(-0, 32.5, 255.799219)">0</text>
     </g>
    </g>
    <g id="ytick_2">
     <g id="line2d_25">
      <path d="M 36 212.465455 
L 259.2 212.465455 
" clip-path="url(#p1decb6fd2b)" style="fill: none; stroke-dasharray: 1.85,0.8; stroke-dashoffset: 0; stroke: #b2b2b2; stroke-width: 0.5"/>
     </g>
     <g id="line2d_26">
      <g>
       <use xlink:href="#m8c83a602c1" x="36" y="212.465455" style="stroke: #000000; stroke-width: 0.8"/>
      </g>
     </g>
     <g id="text_14">
      <text style="font: 10px 'sans-serif'; text-anchor: end" x="32.5" y="216.264673" transform="rotate(-0, 32.5, 216.264673)">2</text>
     </g>
    </g>
    <g id="ytick_3">
     <g id="line2d_27">
      <path d="M 36 172.930909 
L 259.2 172.930909 
" clip-path="url(#p1decb6fd2b)" style="fill: none; stroke-dasharray: 1.85,0.8; stroke-dashoffset: 0; stroke: #b2b2b2; stroke-width: 0.5"/>
     </g>
     <g id="line2d_28">
      <g>
       <use xlink:href="#m8c83a602c1" x="36" y="172.930909" style="stroke: #000000; stroke-width: 0.8"/>
      </g>
     </g>
     <g id="text_15">
      <text style="font: 10px 'sans-serif'; text-anchor: end" x="32.5" y="176.730128" transform="rotate(-0, 32.5, 176.730128)">4</text>
     </g>
    </g>
    <g id="ytick_4">
     <g id="line2d_29">
      <path d="M 36 133.396364 
L 259.2 133.396364 
" clip-path="url(#p1decb6fd2b)" style="fill: none; stroke-dasharray: 1.85,0.8; stroke-dashoffset: 0; stroke: #b2b2b2; stroke-width: 0.5"/>
     </g>
     <g id="line2d_30">
      <g>
       <use xlink:href="#m8c83a602c1" x="36" y="133.396364" style="stroke: #000000; stroke-width: 0.8"/>
      </g>
     </g>
     <g id="text_16">
      <text style="font: 10px 'sans-serif'; text-anchor: end" x="32.5" y="137.195582" transform="rotate(-0, 32.5, 137.195582)">6</text>
     </g>
    </g>
    <g id="ytick_5">
     <g id="line2d_31">
      <path d="M 36 93.861818 
L 259.2 93.861818 
" clip-path="url(#p1decb6fd2b)" style="fill: none; stroke-dasharray: 1.85,0.8; stroke-dashoffset: 0; stroke: #b2b2b2; stroke-width: 0.5"/>
     </g>
     <g id="line2d_32">
      <g>
       <use xlink:href="#m8c83a602c1" x="36" y="93.861818" style="stroke: #000000; stroke-width: 0.8"/>
      </g>
     </g>
     <g id="text_17">
      <text style="font: 10px 'sans-serif'; text-anchor: end" x="32.5" y="97.661037" transform="rotate(-0, 32.5, 97.661037)">8</text>
     </g>
    </g>
    <g id="ytick_6">
     <g id="line2d_33">
      <path d="M 36 54.327273 
L 259.2 54.327273 
" clip-path="url(#p1decb6fd2b)" style="fill: none; stroke-dasharray: 1.85,0.8; stroke-dashoffset: 0; stroke: #b2b2b2; stroke-width: 0.5"/>
     </g>
     <g id="line2d_34">
      <g>
       <use xlink:href="#m8c83a602c1" x="36" y="54.327273" style="stroke: #000000; stroke-width: 0.8"/>
      </g>
     </g>
     <g id="text_18">
      <text style="font: 10px 'sans-serif'; text-anchor: end" x="32.5" y="58.126491" transform="rotate(-0, 32.5, 58.126491)">10</text>
     </g>
    </g>
    <g id="text_19">
     <text style="font: 12px 'sans-serif'; text-anchor: middle" x="13.279375" y="143.28" transform="rotate(-90, 13.279375, 143.28)">Connectome Overlap (Out)</text>
    </g>
   </g>
   <g id="line2d_35">
    <path d="M 56.33713 224.325818 
L 66.505695 212.465455 
L 76.67426 245.410909 
L 86.842825 227.290909 
L 97.01139 235.527273 
L 107.179954 165.024 
L 117.348519 222.349091 
L 127.517084 224.325818 
L 137.685649 214.510345 
L 147.854214 204.558545 
L 158.022779 221.919368 
L 168.191344 217.091838 
L 178.359909 217.141584 
L 188.528474 223.124278 
L 198.697039 230.562254 
L 208.865604 202.977164 
L 219.034169 225.852152 
L 229.202733 189.509912 
L 239.371298 232.232727 
L 249.539863 153.163636 
" clip-path="url(#p1decb6fd2b)" style="fill: none; stroke: #0000ff; stroke-width: 2; stroke-linecap: square"/>
   </g>
   <g id="line2d_36">
    <path d="M 56.33713 235.527273 
L 66.505695 212.465455 
L 76.67426 225.94314 
L 86.842825 235.056623 
L 97.01139 226.114286 
L 107.179954 235.161212 
L 117.348519 231.756407 
L 127.517084 230.066451 
L 137.685649 234.945882 
L 147.854214 231.507323 
L 158.022779 228.298464 
L 168.191344 225.957403 
L 178.359909 230.960576 
L 188.528474 235.583751 
L 198.697039 225.945197 
L 208.865604 225.993887 
L 219.034169 233.121144 
L 229.202733 221.535144 
L 239.371298 226.937922 
L 249.539863 224.82 
" clip-path="url(#p1decb6fd2b)" style="fill: none; stroke: #ff0000; stroke-width: 2; stroke-linecap: square"/>
   </g>
   <g id="patch_3">
    <path d="M 36 252 
L 36 34.56 
" style="fill: none; stroke: #bcbcbc; stroke-width: 0.8; stroke-linejoin: miter; stroke-linecap: square"/>
   </g>
   <g id="patch_4">
    <path d="M 259.2 252 
L 259.2 34.56 
" style="fill: none; stroke: #bcbcbc; stroke-width: 0.8; stroke-linejoin: miter; stroke-linecap: square"/>
   </g>
   <g id="patch_5">
    <path d="M 36 252 
L 259.2 252 
" style="fill: none; stroke: #bcbcbc; stroke-width: 0.8; stroke-linejoin: miter; stroke-linecap: square"/>
   </g>
   <g id="patch_6">
    <path d="M 36 34.56 
L 259.2 34.56 
" style="fill: none; stroke: #bcbcbc; stroke-width: 0.8; stroke-linejoin: miter; stroke-linecap: square"/>
   </g>
   <g id="legend_1">
    <g id="patch_7">
     <path d="M 113.553125 71.91625 
L 252.2 71.91625 
Q 254.2 71.91625 254.2 69.91625 
L 254.2 41.56 
Q 254.2 39.56 252.2 39.56 
L 113.553125 39.56 
Q 111.553125 39.56 111.553125 41.56 
L 111.553125 69.91625 
Q 111.553125 71.91625 113.553125 71.91625 
z
" style="fill: #eeeeee; opacity: 0.8; stroke: #cccccc; stroke-width: 0.5; stroke-linejoin: miter"/>
    </g>
    <g id="line2d_37">
     <path d="M 115.553125 47.658437 
L 125.553125 47.658437 
L 135.553125 47.658437 
" style="fill: none; stroke: #0000ff; stroke-width: 2; stroke-linecap: square"/>
    </g>
    <g id="text_20">
     <text style="font: 10px 'sans-serif'; text-anchor: start" x="143.553125" y="51.158437" transform="rotate(-0, 143.553125, 51.158437)">Matched cell type</text>
    </g>
    <g id="line2d_38">
     <path d="M 115.553125 62.336562 
L 125.553125 62.336562 
L 135.553125 62.336562 
" style="fill: none; stroke: #ff0000; stroke-width: 2; stroke-linecap: square"/>
    </g>
    <g id="text_21">
     <text style="font: 10px 'sans-serif'; text-anchor: start" x="143.553125" y="65.836562" transform="rotate(-0, 143.553125, 65.836562)">Mismatched cell type</text>
    </g>
   </g>
  </g>
 </g>
 <defs>
  <clipPath id="p1decb6fd2b">
   <rect x="36" y="34.56" width="223.2" height="217.44"/>
  </clipPath>
 </defs>
</svg>
