<?xml version="1.0" encoding="utf-8" standalone="no"?>
<!DOCTYPE svg PUBLIC "-//W3C//DTD SVG 1.1//EN"
  "http://www.w3.org/Graphics/SVG/1.1/DTD/svg11.dtd">
<svg xmlns:xlink="http://www.w3.org/1999/xlink" width="288pt" height="288pt" viewBox="0 0 288 288" xmlns="http://www.w3.org/2000/svg" version="1.1">
 <metadata>
  <rdf:RDF xmlns:dc="http://purl.org/dc/elements/1.1/" xmlns:cc="http://creativecommons.org/ns#" xmlns:rdf="http://www.w3.org/1999/02/22-rdf-syntax-ns#">
   <cc:Work>
    <dc:type rdf:resource="http://purl.org/dc/dcmitype/StillImage"/>
    <dc:date>2021-12-31T10:58:49.042523</dc:date>
    <dc:format>image/svg+xml</dc:format>
    <dc:creator>
     <cc:Agent>
      <dc:title>Matplotlib v3.5.0, https://matplotlib.org/</dc:title>
     </cc:Agent>
    </dc:creator>
   </cc:Work>
  </rdf:RDF>
 </metadata>
 <defs>
  <style type="text/css">*{stroke-linejoin: round; stroke-linecap: butt}</style>
 </defs>
 <g id="figure_1">
  <g id="patch_1">
   <path d="M 0 288 
L 288 288 
L 288 0 
L 0 0 
L 0 288 
z
" style="fill: none"/>
  </g>
  <g id="axes_1">
   <g id="patch_2">
    <path d="M 36 252 
L 259.2 252 
L 259.2 34.56 
L 36 34.56 
z
" style="fill: #eeeeee"/>
   </g>
   <g id="PolyCollection_1">
    <path d="M 76.67426 172.930909 
L 76.67426 212.465455 
L 86.842825 232.232727 
L 97.01139 220.682651 
L 97.01139 192.387895 
L 97.01139 192.387895 
L 86.842825 192.698182 
L 76.67426 172.930909 
z
" clip-path="url(#pbb82b1a422)" style="fill: #0000ff; fill-opacity: 0.25; stroke: #0000ff; stroke-opacity: 0.25; stroke-width: 0.5"/>
    <path d="M 117.348519 187.696249 
L 117.348519 211.653483 
L 127.517084 216.238024 
L 137.685649 195.953577 
L 147.854214 218.708469 
L 158.022779 208.155885 
L 168.191344 227.893399 
L 178.359909 212.960867 
L 188.528474 210.142221 
L 198.697039 209.704723 
L 208.865604 227.577548 
L 219.034169 223.59143 
L 229.202733 228.928934 
L 239.371298 232.776535 
L 249.539863 231.218336 
L 249.539863 193.712573 
L 249.539863 193.712573 
L 239.371298 224.629179 
L 229.202733 221.199818 
L 219.034169 217.101618 
L 208.865604 217.480038 
L 198.697039 199.031312 
L 188.528474 199.064721 
L 178.359909 197.593844 
L 168.191344 215.007758 
L 158.022779 186.7833 
L 147.854214 200.140203 
L 137.685649 177.911878 
L 127.517084 188.925612 
L 117.348519 187.696249 
z
" clip-path="url(#pbb82b1a422)" style="fill: #0000ff; fill-opacity: 0.25; stroke: #0000ff; stroke-opacity: 0.25; stroke-width: 0.5"/>
   </g>
   <g id="PolyCollection_2">
    <defs>
     <path id="macbf05a907" d="M 56.33713 -67.813402 
L 56.33713 -53.60478 
L 66.505695 -47.34659 
L 76.67426 -47.922985 
L 86.842825 -48.925438 
L 97.01139 -52.744444 
L 107.179954 -53.311117 
L 117.348519 -50.781622 
L 127.517084 -56.002949 
L 137.685649 -55.567502 
L 147.854214 -54.099862 
L 158.022779 -61.731977 
L 168.191344 -56.842853 
L 178.359909 -62.886724 
L 188.528474 -54.254166 
L 198.697039 -58.107124 
L 208.865604 -55.721004 
L 219.034169 -56.40083 
L 229.202733 -52.395665 
L 239.371298 -52.300385 
L 249.539863 -45.483669 
L 249.539863 -56.16724 
L 249.539863 -56.16724 
L 239.371298 -56.808729 
L 229.202733 -54.947068 
L 219.034169 -58.579184 
L 208.865604 -59.46064 
L 198.697039 -61.520375 
L 188.528474 -57.060335 
L 178.359909 -66.536757 
L 168.191344 -61.313241 
L 158.022779 -67.353779 
L 147.854214 -59.737666 
L 137.685649 -60.971416 
L 127.517084 -64.44079 
L 117.348519 -57.075292 
L 107.179954 -68.425892 
L 97.01139 -63.282663 
L 86.842825 -58.655653 
L 76.67426 -67.565015 
L 66.505695 -68.14141 
L 56.33713 -67.813402 
z
" style="stroke: #ff0000; stroke-opacity: 0.25; stroke-width: 0.5"/>
    </defs>
    <g clip-path="url(#pbb82b1a422)">
     <use xlink:href="#macbf05a907" x="0" y="288" style="fill: #ff0000; fill-opacity: 0.25; stroke: #ff0000; stroke-opacity: 0.25; stroke-width: 0.5"/>
    </g>
   </g>
   <g id="matplotlib.axis_1">
    <g id="xtick_1">
     <g id="line2d_1">
      <path d="M 36 252 
L 36 34.56 
" clip-path="url(#pbb82b1a422)" style="fill: none; stroke-dasharray: 1.85,0.8; stroke-dashoffset: 0; stroke: #b2b2b2; stroke-width: 0.5"/>
     </g>
     <g id="line2d_2">
      <defs>
       <path id="mca5b0a0482" d="M 0 0 
L 0 -3.5 
" style="stroke: #000000; stroke-width: 0.8"/>
      </defs>
      <g>
       <use xlink:href="#mca5b0a0482" x="36" y="252" style="stroke: #000000; stroke-width: 0.8"/>
      </g>
     </g>
     <g id="text_1">
      <text style="font: 10px 'sans-serif'; text-anchor: middle" x="36" y="263.098437" transform="rotate(-0, 36, 263.098437)">0</text>
     </g>
    </g>
    <g id="xtick_2">
     <g id="line2d_3">
      <path d="M 56.33713 252 
L 56.33713 34.56 
" clip-path="url(#pbb82b1a422)" style="fill: none; stroke-dasharray: 1.85,0.8; stroke-dashoffset: 0; stroke: #b2b2b2; stroke-width: 0.5"/>
     </g>
     <g id="line2d_4">
      <g>
       <use xlink:href="#mca5b0a0482" x="56.33713" y="252" style="stroke: #000000; stroke-width: 0.8"/>
      </g>
     </g>
     <g id="text_2">
      <text style="font: 10px 'sans-serif'; text-anchor: middle" x="56.33713" y="263.098437" transform="rotate(-0, 56.33713, 263.098437)">2</text>
     </g>
    </g>
    <g id="xtick_3">
     <g id="line2d_5">
      <path d="M 76.67426 252 
L 76.67426 34.56 
" clip-path="url(#pbb82b1a422)" style="fill: none; stroke-dasharray: 1.85,0.8; stroke-dashoffset: 0; stroke: #b2b2b2; stroke-width: 0.5"/>
     </g>
     <g id="line2d_6">
      <g>
       <use xlink:href="#mca5b0a0482" x="76.67426" y="252" style="stroke: #000000; stroke-width: 0.8"/>
      </g>
     </g>
     <g id="text_3">
      <text style="font: 10px 'sans-serif'; text-anchor: middle" x="76.67426" y="263.098437" transform="rotate(-0, 76.67426, 263.098437)">4</text>
     </g>
    </g>
    <g id="xtick_4">
     <g id="line2d_7">
      <path d="M 97.01139 252 
L 97.01139 34.56 
" clip-path="url(#pbb82b1a422)" style="fill: none; stroke-dasharray: 1.85,0.8; stroke-dashoffset: 0; stroke: #b2b2b2; stroke-width: 0.5"/>
     </g>
     <g id="line2d_8">
      <g>
       <use xlink:href="#mca5b0a0482" x="97.01139" y="252" style="stroke: #000000; stroke-width: 0.8"/>
      </g>
     </g>
     <g id="text_4">
      <text style="font: 10px 'sans-serif'; text-anchor: middle" x="97.01139" y="263.098437" transform="rotate(-0, 97.01139, 263.098437)">6</text>
     </g>
    </g>
    <g id="xtick_5">
     <g id="line2d_9">
      <path d="M 117.348519 252 
L 117.348519 34.56 
" clip-path="url(#pbb82b1a422)" style="fill: none; stroke-dasharray: 1.85,0.8; stroke-dashoffset: 0; stroke: #b2b2b2; stroke-width: 0.5"/>
     </g>
     <g id="line2d_10">
      <g>
       <use xlink:href="#mca5b0a0482" x="117.348519" y="252" style="stroke: #000000; stroke-width: 0.8"/>
      </g>
     </g>
     <g id="text_5">
      <text style="font: 10px 'sans-serif'; text-anchor: middle" x="117.348519" y="263.098437" transform="rotate(-0, 117.348519, 263.098437)">8</text>
     </g>
    </g>
    <g id="xtick_6">
     <g id="line2d_11">
      <path d="M 137.685649 252 
L 137.685649 34.56 
" clip-path="url(#pbb82b1a422)" style="fill: none; stroke-dasharray: 1.85,0.8; stroke-dashoffset: 0; stroke: #b2b2b2; stroke-width: 0.5"/>
     </g>
     <g id="line2d_12">
      <g>
       <use xlink:href="#mca5b0a0482" x="137.685649" y="252" style="stroke: #000000; stroke-width: 0.8"/>
      </g>
     </g>
     <g id="text_6">
      <text style="font: 10px 'sans-serif'; text-anchor: middle" x="137.685649" y="263.098437" transform="rotate(-0, 137.685649, 263.098437)">10</text>
     </g>
    </g>
    <g id="xtick_7">
     <g id="line2d_13">
      <path d="M 158.022779 252 
L 158.022779 34.56 
" clip-path="url(#pbb82b1a422)" style="fill: none; stroke-dasharray: 1.85,0.8; stroke-dashoffset: 0; stroke: #b2b2b2; stroke-width: 0.5"/>
     </g>
     <g id="line2d_14">
      <g>
       <use xlink:href="#mca5b0a0482" x="158.022779" y="252" style="stroke: #000000; stroke-width: 0.8"/>
      </g>
     </g>
     <g id="text_7">
      <text style="font: 10px 'sans-serif'; text-anchor: middle" x="158.022779" y="263.098437" transform="rotate(-0, 158.022779, 263.098437)">12</text>
     </g>
    </g>
    <g id="xtick_8">
     <g id="line2d_15">
      <path d="M 178.359909 252 
L 178.359909 34.56 
" clip-path="url(#pbb82b1a422)" style="fill: none; stroke-dasharray: 1.85,0.8; stroke-dashoffset: 0; stroke: #b2b2b2; stroke-width: 0.5"/>
     </g>
     <g id="line2d_16">
      <g>
       <use xlink:href="#mca5b0a0482" x="178.359909" y="252" style="stroke: #000000; stroke-width: 0.8"/>
      </g>
     </g>
     <g id="text_8">
      <text style="font: 10px 'sans-serif'; text-anchor: middle" x="178.359909" y="263.098437" transform="rotate(-0, 178.359909, 263.098437)">14</text>
     </g>
    </g>
    <g id="xtick_9">
     <g id="line2d_17">
      <path d="M 198.697039 252 
L 198.697039 34.56 
" clip-path="url(#pbb82b1a422)" style="fill: none; stroke-dasharray: 1.85,0.8; stroke-dashoffset: 0; stroke: #b2b2b2; stroke-width: 0.5"/>
     </g>
     <g id="line2d_18">
      <g>
       <use xlink:href="#mca5b0a0482" x="198.697039" y="252" style="stroke: #000000; stroke-width: 0.8"/>
      </g>
     </g>
     <g id="text_9">
      <text style="font: 10px 'sans-serif'; text-anchor: middle" x="198.697039" y="263.098437" transform="rotate(-0, 198.697039, 263.098437)">16</text>
     </g>
    </g>
    <g id="xtick_10">
     <g id="line2d_19">
      <path d="M 219.034169 252 
L 219.034169 34.56 
" clip-path="url(#pbb82b1a422)" style="fill: none; stroke-dasharray: 1.85,0.8; stroke-dashoffset: 0; stroke: #b2b2b2; stroke-width: 0.5"/>
     </g>
     <g id="line2d_20">
      <g>
       <use xlink:href="#mca5b0a0482" x="219.034169" y="252" style="stroke: #000000; stroke-width: 0.8"/>
      </g>
     </g>
     <g id="text_10">
      <text style="font: 10px 'sans-serif'; text-anchor: middle" x="219.034169" y="263.098437" transform="rotate(-0, 219.034169, 263.098437)">18</text>
     </g>
    </g>
    <g id="xtick_11">
     <g id="line2d_21">
      <path d="M 239.371298 252 
L 239.371298 34.56 
" clip-path="url(#pbb82b1a422)" style="fill: none; stroke-dasharray: 1.85,0.8; stroke-dashoffset: 0; stroke: #b2b2b2; stroke-width: 0.5"/>
     </g>
     <g id="line2d_22">
      <g>
       <use xlink:href="#mca5b0a0482" x="239.371298" y="252" style="stroke: #000000; stroke-width: 0.8"/>
      </g>
     </g>
     <g id="text_11">
      <text style="font: 10px 'sans-serif'; text-anchor: middle" x="239.371298" y="263.098437" transform="rotate(-0, 239.371298, 263.098437)">20</text>
     </g>
    </g>
    <g id="text_12">
     <text style="font: 12px 'sans-serif'; text-anchor: middle" x="147.6" y="278.29625" transform="rotate(-0, 147.6, 278.29625)">Lineage Distance</text>
    </g>
   </g>
   <g id="matplotlib.axis_2">
    <g id="ytick_1">
     <g id="line2d_23">
      <path d="M 36 252 
L 259.2 252 
" clip-path="url(#pbb82b1a422)" style="fill: none; stroke-dasharray: 1.85,0.8; stroke-dashoffset: 0; stroke: #b2b2b2; stroke-width: 0.5"/>
     </g>
     <g id="line2d_24">
      <defs>
       <path id="m4d63e8bb24" d="M 0 0 
L 3.5 0 
" style="stroke: #000000; stroke-width: 0.8"/>
      </defs>
      <g>
       <use xlink:href="#m4d63e8bb24" x="36" y="252" style="stroke: #000000; stroke-width: 0.8"/>
      </g>
     </g>
     <g id="text_13">
      <text style="font: 10px 'sans-serif'; text-anchor: end" x="32.5" y="255.799219" transform="rotate(-0, 32.5, 255.799219)">0</text>
     </g>
    </g>
    <g id="ytick_2">
     <g id="line2d_25">
      <path d="M 36 212.465455 
L 259.2 212.465455 
" clip-path="url(#pbb82b1a422)" style="fill: none; stroke-dasharray: 1.85,0.8; stroke-dashoffset: 0; stroke: #b2b2b2; stroke-width: 0.5"/>
     </g>
     <g id="line2d_26">
      <g>
       <use xlink:href="#m4d63e8bb24" x="36" y="212.465455" style="stroke: #000000; stroke-width: 0.8"/>
      </g>
     </g>
     <g id="text_14">
      <text style="font: 10px 'sans-serif'; text-anchor: end" x="32.5" y="216.264673" transform="rotate(-0, 32.5, 216.264673)">2</text>
     </g>
    </g>
    <g id="ytick_3">
     <g id="line2d_27">
      <path d="M 36 172.930909 
L 259.2 172.930909 
" clip-path="url(#pbb82b1a422)" style="fill: none; stroke-dasharray: 1.85,0.8; stroke-dashoffset: 0; stroke: #b2b2b2; stroke-width: 0.5"/>
     </g>
     <g id="line2d_28">
      <g>
       <use xlink:href="#m4d63e8bb24" x="36" y="172.930909" style="stroke: #000000; stroke-width: 0.8"/>
      </g>
     </g>
     <g id="text_15">
      <text style="font: 10px 'sans-serif'; text-anchor: end" x="32.5" y="176.730128" transform="rotate(-0, 32.5, 176.730128)">4</text>
     </g>
    </g>
    <g id="ytick_4">
     <g id="line2d_29">
      <path d="M 36 133.396364 
L 259.2 133.396364 
" clip-path="url(#pbb82b1a422)" style="fill: none; stroke-dasharray: 1.85,0.8; stroke-dashoffset: 0; stroke: #b2b2b2; stroke-width: 0.5"/>
     </g>
     <g id="line2d_30">
      <g>
       <use xlink:href="#m4d63e8bb24" x="36" y="133.396364" style="stroke: #000000; stroke-width: 0.8"/>
      </g>
     </g>
     <g id="text_16">
      <text style="font: 10px 'sans-serif'; text-anchor: end" x="32.5" y="137.195582" transform="rotate(-0, 32.5, 137.195582)">6</text>
     </g>
    </g>
    <g id="ytick_5">
     <g id="line2d_31">
      <path d="M 36 93.861818 
L 259.2 93.861818 
" clip-path="url(#pbb82b1a422)" style="fill: none; stroke-dasharray: 1.85,0.8; stroke-dashoffset: 0; stroke: #b2b2b2; stroke-width: 0.5"/>
     </g>
     <g id="line2d_32">
      <g>
       <use xlink:href="#m4d63e8bb24" x="36" y="93.861818" style="stroke: #000000; stroke-width: 0.8"/>
      </g>
     </g>
     <g id="text_17">
      <text style="font: 10px 'sans-serif'; text-anchor: end" x="32.5" y="97.661037" transform="rotate(-0, 32.5, 97.661037)">8</text>
     </g>
    </g>
    <g id="ytick_6">
     <g id="line2d_33">
      <path d="M 36 54.327273 
L 259.2 54.327273 
" clip-path="url(#pbb82b1a422)" style="fill: none; stroke-dasharray: 1.85,0.8; stroke-dashoffset: 0; stroke: #b2b2b2; stroke-width: 0.5"/>
     </g>
     <g id="line2d_34">
      <g>
       <use xlink:href="#m4d63e8bb24" x="36" y="54.327273" style="stroke: #000000; stroke-width: 0.8"/>
      </g>
     </g>
     <g id="text_18">
      <text style="font: 10px 'sans-serif'; text-anchor: end" x="32.5" y="58.126491" transform="rotate(-0, 32.5, 58.126491)">10</text>
     </g>
    </g>
    <g id="text_19">
     <text style="font: 12px 'sans-serif'; text-anchor: middle" x="13.279375" y="143.28" transform="rotate(-90, 13.279375, 143.28)">Connectome Overlap (Out)</text>
    </g>
   </g>
   <g id="line2d_35">
    <path d="M 56.33713 252 
L 66.505695 192.698182 
L 76.67426 192.698182 
L 86.842825 212.465455 
L 97.01139 206.535273 
L 107.179954 172.930909 
L 117.348519 199.674866 
L 127.517084 202.581818 
L 137.685649 186.932727 
L 147.854214 209.424336 
L 158.022779 197.469592 
L 168.191344 221.450579 
L 178.359909 205.277355 
L 188.528474 204.603471 
L 198.697039 204.368018 
L 208.865604 222.528793 
L 219.034169 220.346524 
L 229.202733 225.064376 
L 239.371298 228.702857 
L 249.539863 212.465455 
" clip-path="url(#pbb82b1a422)" style="fill: none; stroke: #0000ff; stroke-width: 2; stroke-linecap: square"/>
   </g>
   <g id="line2d_36">
    <path d="M 56.33713 227.290909 
L 66.505695 230.256 
L 76.67426 230.256 
L 86.842825 234.209455 
L 97.01139 229.986446 
L 107.179954 227.131496 
L 117.348519 234.071543 
L 127.517084 227.778131 
L 137.685649 229.730541 
L 147.854214 231.081236 
L 158.022779 223.457122 
L 168.191344 228.921953 
L 178.359909 223.28826 
L 188.528474 232.342749 
L 198.697039 228.18625 
L 208.865604 230.409178 
L 219.034169 230.509993 
L 229.202733 234.328634 
L 239.371298 233.445443 
L 249.539863 237.174545 
" clip-path="url(#pbb82b1a422)" style="fill: none; stroke: #ff0000; stroke-width: 2; stroke-linecap: square"/>
   </g>
   <g id="patch_3">
    <path d="M 36 252 
L 36 34.56 
" style="fill: none; stroke: #bcbcbc; stroke-width: 0.8; stroke-linejoin: miter; stroke-linecap: square"/>
   </g>
   <g id="patch_4">
    <path d="M 259.2 252 
L 259.2 34.56 
" style="fill: none; stroke: #bcbcbc; stroke-width: 0.8; stroke-linejoin: miter; stroke-linecap: square"/>
   </g>
   <g id="patch_5">
    <path d="M 36 252 
L 259.2 252 
" style="fill: none; stroke: #bcbcbc; stroke-width: 0.8; stroke-linejoin: miter; stroke-linecap: square"/>
   </g>
   <g id="patch_6">
    <path d="M 36 34.56 
L 259.2 34.56 
" style="fill: none; stroke: #bcbcbc; stroke-width: 0.8; stroke-linejoin: miter; stroke-linecap: square"/>
   </g>
   <g id="legend_1">
    <g id="patch_7">
     <path d="M 113.553125 71.91625 
L 252.2 71.91625 
Q 254.2 71.91625 254.2 69.91625 
L 254.2 41.56 
Q 254.2 39.56 252.2 39.56 
L 113.553125 39.56 
Q 111.553125 39.56 111.553125 41.56 
L 111.553125 69.91625 
Q 111.553125 71.91625 113.553125 71.91625 
z
" style="fill: #eeeeee; opacity: 0.8; stroke: #cccccc; stroke-width: 0.5; stroke-linejoin: miter"/>
    </g>
    <g id="line2d_37">
     <path d="M 115.553125 47.658437 
L 125.553125 47.658437 
L 135.553125 47.658437 
" style="fill: none; stroke: #0000ff; stroke-width: 2; stroke-linecap: square"/>
    </g>
    <g id="text_20">
     <text style="font: 10px 'sans-serif'; text-anchor: start" x="143.553125" y="51.158437" transform="rotate(-0, 143.553125, 51.158437)">Matched cell type</text>
    </g>
    <g id="line2d_38">
     <path d="M 115.553125 62.336562 
L 125.553125 62.336562 
L 135.553125 62.336562 
" style="fill: none; stroke: #ff0000; stroke-width: 2; stroke-linecap: square"/>
    </g>
    <g id="text_21">
     <text style="font: 10px 'sans-serif'; text-anchor: start" x="143.553125" y="65.836562" transform="rotate(-0, 143.553125, 65.836562)">Mismatched cell type</text>
    </g>
   </g>
  </g>
 </g>
 <defs>
  <clipPath id="pbb82b1a422">
   <rect x="36" y="34.56" width="223.2" height="217.44"/>
  </clipPath>
 </defs>
</svg>
